HIERARCHY
ROOT Hips
{
	OFFSET 0.000000 0.000000 0.000000 
	CHANNELS 6 Xposition Yposition Zposition Yrotation Zrotation Xrotation 
	JOINT Lumbar
	{
		OFFSET 0.000000 0.000000 0.000000 
		CHANNELS 3 Zrotation Xrotation Yrotation
		JOINT Neck
		{
			OFFSET 0.000000 0.445665 0.000000 
			CHANNELS 3 Zrotation Xrotation Yrotation
			End Site
			{
				OFFSET 0.000000 0.227535 0.000000 
			}
		}
		JOINT RightShoulder
		{
			OFFSET 0.019635 0.377685 0.194865 
			CHANNELS 3 Zrotation Xrotation Yrotation
			JOINT RightElbow
			{
				OFFSET 0.000000 -0.243375 0.000000 
				CHANNELS 2 Zrotation Yrotation
				JOINT RightWrist
				{
					OFFSET 0.000000 -0.264825 0.000000 
					CHANNELS 2 Zrotation Xrotation
					End Site
					{
						OFFSET 0.006600 -0.176220 0.000990 
					}
				}
			}
		}
		JOINT LeftShoulder
		{
			OFFSET 0.019635 0.377685 -0.194865 
			CHANNELS 3 Zrotation Xrotation Yrotation
			JOINT LeftElbow
			{
				OFFSET 0.000000 -0.243375 0.000000 
				CHANNELS 2 Zrotation Yrotation
				JOINT LeftWrist
				{
					OFFSET 0.000000 -0.264825 0.000000 
					CHANNELS 2 Zrotation Xrotation
					End Site
					{
						OFFSET 0.006600 -0.176220 -0.000990 
					}
				}
			}
		}
	}
	JOINT RightHip
	{
		OFFSET 0.052140 -0.069960 0.075570 
		CHANNELS 3 Zrotation Xrotation Yrotation
		JOINT RightKnee
		{
			OFFSET 0.000000 -0.402270 0.000000 
			CHANNELS 1 Zrotation
			JOINT RightAnkle
			{
				OFFSET 0.000000 -0.404085 0.000000 
				CHANNELS 3 Zrotation Xrotation Yrotation
				End Site
				{
					OFFSET 0.204105 -0.089430 0.008415 
				}
			}
		}
	}
	JOINT LeftHip
	{
		OFFSET 0.052140 -0.069960 -0.075570 
		CHANNELS 3 Zrotation Xrotation Yrotation
		JOINT LeftKnee
		{
			OFFSET 0.000000 -0.402270 0.000000 
			CHANNELS 1 Zrotation
			JOINT LeftAnkle
			{
				OFFSET 0.000000 -0.404085 0.000000 
				CHANNELS 3 Zrotation Xrotation Yrotation
				End Site
				{
					OFFSET 0.204105 -0.089430 -0.008415 
				}
			}
		}
	}
}
MOTION
Frames: 16
Frame Time: 0.02
0.00141 0.00043 -0.0009 19.36851 -35.69176 -1.61572 58.49632 -0.06586 0.6765 -4.96723 -1.59247 -0.13995 147.55194 -71.30756 -65.21054 12.91405 92.40606 -0.43162 -10.28848 150.68763 72.96881 78.21829 9.73444 -45.28469 9.68715 7.54981 48.19316 -0.39882 -8.10967 -18.87834 -7.39616 -4.85444 -3.37423 52.07867 0.15208 -0.95997 -24.54263 -8.96926 5.64251 3.82202
0.00057 0.00028 -0.00111 19.33999 -35.65009 -1.62272 58.45034 -0.06798 0.70819 -5.12591 -1.56772 -0.14026 147.585 -71.31607 -65.17783 12.88396 92.39712 -0.432 -10.26131 150.59622 72.88738 78.85744 9.5955 -49.86247 8.83737 7.87654 48.2037 -0.41714 -8.08943 -18.88016 -7.40562 -4.87287 -3.37502 52.07717 0.24685 -0.43143 -24.54888 -8.9235 5.61649 3.79957
-0.00028 0.00013 -0.00133 19.31143 -35.60858 -1.62977 58.40437 -0.0701 0.73981 -5.2842 -1.543 -0.14056 147.61765 -71.32464 -65.14567 12.85387 92.38829 -0.43209 -10.23394 150.50489 72.80609 79.4959 9.45675 -54.42263 7.99086 8.20139 48.21442 -0.43549 -8.06994 -18.88202 -7.41499 -4.89118 -3.37575 52.07584 0.34149 0.09599 -24.55512 -8.87783 5.5905 3.77717
-0.00112 -3e-05 -0.00155 19.28299 -35.56703 -1.63676 58.35852 -0.07221 0.77143 -5.44242 -1.51831 -0.14087 147.65074 -71.33312 -65.1131 12.82387 92.37944 -0.43243 -10.20682 150.4137 72.72484 80.1334 9.31816 -58.9856 7.14383 8.52695 48.22495 -0.45378 -8.0499 -18.88383 -7.42441 -4.90955 -3.37652 52.07436 0.43598 0.62301 -24.56135 -8.83219 5.56455 3.75479
-0.00196 -0.00018 -0.00176 19.25459 -35.52531 -1.6437 58.31269 -0.07434 0.80305 -5.60096 -1.49362 -0.14117 147.68382 -71.34154 -65.07993 12.79386 92.37033 -0.43317 -10.17997 150.32261 72.64363 80.77082 9.17958 -63.56789 6.29322 8.85477 48.23526 -0.47197 -8.02878 -18.88561 -7.43395 -4.92808 -3.37736 52.07266 0.53055 1.1509 -24.56758 -8.78648 5.53858 3.73237
-0.00281 -0.00033 -0.00198 19.22569 -35.48427 -1.65095 58.26641 -0.07646 0.83465 -5.75871 -1.46883 -0.14149 147.71529 -71.35048 -65.04996 12.76361 92.36204 -0.43187 -10.15149 150.23081 72.56224 81.41121 9.04056 -68.08154 5.45534 9.17338 48.24685 -0.49063 -8.01269 -18.88766 -7.44299 -4.94593 -3.37788 52.07214 0.62534 1.67728 -24.57385 -8.74091 5.51257 3.71
-0.00365 -0.00048 -0.0022 19.19791 -35.44187 -1.65755 58.22117 -0.07854 0.86639 -5.91793 -1.44427 -0.14176 147.75135 -71.35821 -65.01328 12.73395 92.3524 -0.43471 -10.12641 150.14031 72.48096 82.04576 8.90228 -72.72697 4.59301 9.51002 48.25576 -0.50842 -7.98668 -18.8891 -7.45299 -4.96511 -3.37903 52.06918 0.71954 2.20623 -24.58004 -8.69508 5.48666 3.68756
-0.00449 -0.00064 -0.00241 19.16896 -35.40078 -1.66482 58.17479 -0.08073 0.89775 -6.07569 -1.41949 -0.14211 147.78064 -71.36734 -64.98334 12.70363 92.3435 -0.43366 -10.09802 150.04902 72.4002 82.68415 8.76384 -77.25334 3.75279 9.83031 48.26733 -0.52683 -7.96947 -18.8912 -7.46214 -4.98309 -3.37962 52.06859 0.81438 2.7326 -24.58628 -8.64954 5.46068 3.6652
-0.00535 -0.00079 -0.00262 19.13909 -35.36107 -1.67264 58.12769 -0.08276 0.92964 -6.23216 -1.39447 -0.14242 147.81167 -71.37709 -64.95951 12.6729 92.3375 -0.4281 -10.06622 149.9551 72.31754 83.33387 8.62305 -81.6257 2.94107 10.1295 48.28141 -0.54675 -7.96451 -18.89373 -7.47012 -4.99951 -3.37945 52.07044 0.90969 3.257 -24.59266 -8.60414 5.43449 3.64287
-0.00613 -0.00094 -0.00288 19.11603 -35.31276 -1.67648 58.08674 -0.08485 0.96149 -6.39758 -1.37091 -0.14255 147.8628 -71.37998 -64.89413 12.64575 92.3208 -0.44924 -10.05593 149.87127 72.2382 83.93837 8.48932 -86.85877 1.96981 10.54673 48.27885 -0.56024 -7.89359 -18.89267 -7.48442 -5.02463 -3.38342 52.05691 1.00133 3.79631 -24.59849 -8.55729 5.40917 3.62014
-0.00709 -0.0011 -0.00301 19.07767 -35.28301 -1.68925 58.03158 -0.08737 0.99151 -6.5431 -1.34421 -0.14333 147.85231 -71.39944 -64.92045 12.61027 92.32286 -0.41361 -9.99911 149.7694 72.15675 84.62535 8.34482 -90.29215 1.33229 10.71715 48.31276 -0.58587 -7.95885 -18.89986 -7.48568 -5.03156 -3.37879 52.07666 1.10133 4.30177 -24.60533 -8.5139 5.3822 3.59839
-0.00853 -0.00132 -0.00283 19.00408 -35.30105 -1.72238 57.94665 -0.08673 1.03199 -6.64112 -1.30884 -0.14349 147.81131 -71.4452 -65.1716 12.557 92.41627 -0.22689 -9.82708 149.5958 72.03587 85.65231 8.13574 -88.59752 1.63799 10.18247 48.43731 -0.6569 -8.42653 -18.92542 -7.4483 -4.98649 -3.34936 52.18182 1.21977 4.73335 -24.61624 -8.47663 5.34917 3.57828
-0.01017 -0.00155 -0.0025 18.91361 -35.33827 -1.76526 57.84542 -0.08745 1.06761 -6.71723 -1.27007 -0.14471 147.6709 -71.50942 -65.52229 12.49368 92.5266 0.0157 -9.60911 149.41154 71.92377 86.74441 7.92184 -85.12594 2.27007 9.40343 48.60053 -0.7379 -9.02575 -18.96066 -7.39826 -4.92347 -3.31148 52.32152 1.34759 5.12743 -24.62796 -8.44346 5.31479 3.55936
-0.01173 -0.00177 -0.00218 18.8268 -35.36876 -1.80638 57.74604 -0.09019 1.09555 -6.79958 -1.23322 -0.14703 147.50054 -71.57992 -65.84174 12.43259 92.59619 0.23835 -9.40002 149.24248 71.82371 87.72813 7.73366 -82.59751 2.73963 8.75652 48.75187 -0.80648 -9.5459 -18.99352 -7.356 -4.87009 -3.27833 52.44924 1.47387 5.5262 -24.63839 -8.41058 5.28204 3.54055
-0.01322 -0.00202 -0.00209 18.75799 -35.391 -1.83622 57.67144 -0.08124 1.16589 -6.9002 -1.19583 -0.1428 147.69575 -71.59568 -66.09207 12.38438 92.78287 0.44632 -9.22868 149.01605 71.63685 89.03055 7.44817 -79.51322 3.28495 8.027 48.87809 -0.90838 -10.14731 -19.01546 -7.30553 -4.81066 -3.2416 52.56123 1.58804 5.97692 -24.65254 -8.36853 5.24494 3.51894
-0.01491 -0.00222 -0.00149 18.64632 -35.43484 -1.89188 57.53968 -0.09766 1.14592 -6.95429 -1.15742 -0.15232 147.04506 -71.72085 -66.52281 12.30316 92.75789 0.6878 -8.98387 148.92364 71.65687 89.70215 7.36165 -77.14017 3.73081 7.40299 49.06725 -0.94326 -10.6112 -19.06548 -7.26872 -4.75927 -3.21011 52.71431 1.73046 6.31069 -24.65934 -8.34662 5.21665 3.5035
